<svg xmlns="http://www.w3.org/2000/svg" width="24" height="24" viewBox="0 0 196.54 169.27">
    <defs>
        <style>
            .full-logo-title-cls-1{fill:#d2f5fb;}.full-logo-title-cls-2{fill:#6edef1;}.full-logo-title-cls-3{fill:#77e0f2;}.full-logo-title-cls-4{fill:#4dd7ee;}.full-logo-title-cls-5{fill:#5edbf0;}.full-logo-title-cls-6{fill:#75e0f2;}.full-logo-title-cls-7{fill:#5cdaf0;}.full-logo-title-cls-8{fill:#9ae8f5;}.full-logo-title-cls-9{fill:#67ddf1;}.full-logo-title-cls-10{fill:#92e6f5;}.full-logo-title-cls-11{fill:#b7eff8;}.full-logo-title-cls-12{fill:#adedf7;}.full-logo-title-cls-13{fill:#56d9ef;}.full-logo-title-cls-14{fill:#8be5f4;}.full-logo-title-cls-15{fill:#9de9f6;}.full-logo-title-cls-16{fill:#c5f2fa;}.full-logo-title-cls-17{fill:#b8eff8;}.full-logo-title-cls-18{fill:#61dbf0;}.full-logo-title-cls-19{fill:#4fd7ef;}.full-logo-title-cls-20{fill:#5adaf0;}.full-logo-title-cls-21{fill:#6cdef1;}.full-logo-title-cls-22{fill:#4ad6ee;}.full-logo-title-cls-23{fill:#69ddf1;}.full-logo-title-cls-24{fill:#86e4f4;}.full-logo-title-cls-25{fill:#58d9ef;}.full-logo-title-cls-26{fill:#d5f6fb;}.full-logo-title-cls-27{fill:#c3f1f9;}.full-logo-title-cls-28{fill:#a1eaf6;}.full-logo-title-cls-29{fill:#90e6f5;}.full-logo-title-cls-30{fill:#0a324a;}.full-logo-title-cls-31{fill:#72dff2;}
        </style>
    </defs>
    <title>fullAsset 2</title>
    <g id="Layer_2" data-name="Layer 2">
        <g id="Layer_1-2" data-name="Layer 1">
            <path class="full-logo-title-cls-1"
                  d="M148.46,67.63V29h0l-16.73-9.66L115,9.67,98.27,0h0L81.54,9.66,64.81,19.33,48.08,29v58h0L64.81,96.6l16.73,9.66,16.73,9.66h0L115,106.27l16.73-9.66,16.73-9.66ZM115,86.95,98.27,96.6h0L81.54,86.94,64.81,77.28V38.64L81.54,29l16.72-9.66h0L115,29,98.27,38.65h0L81.54,48.3V67.62h0l16.72,9.66h0L115,67.63h0V48.31h0L131.73,58V77.29Z"/>
            <path class="full-logo-title-cls-2"
                  d="M131.73,19.33,115,9.67,98.27,0V0h0L81.54,9.66,64.81,19.33,48.07,29v58h0L64.81,96.6l16.73,9.66,16.72,9.66h0L115,106.27l16.74-9.66,16.73-9.66V29Zm0,58L115,86.95,98.27,96.6h0L81.54,86.94,64.8,77.28V38.64L81.54,29l16.72-9.65h0L115,29,98.27,38.64h0L81.54,48.3V67.62l16.72,9.65v0h0L115,67.63V48.31L131.73,58Z"/>
            <polygon class="full-logo-title-cls-3" points="98.26 19.33 98.27 0.01 115 9.67 98.26 19.33"/>
            <polygon class="full-logo-title-cls-4" points="115 9.67 115 28.99 98.26 19.33 115 9.67"/>
            <polygon class="full-logo-title-cls-5" points="115 28.99 115 9.67 131.73 19.33 115 28.99"/>
            <polygon class="full-logo-title-cls-6" points="131.73 19.33 131.73 38.65 115 28.99 131.73 19.33"/>
            <polygon class="full-logo-title-cls-5" points="115 28.99 115 48.31 98.27 38.65 115 28.99"/>
            <polygon class="full-logo-title-cls-7" points="115 48.31 115 28.99 131.73 38.65 115 48.31"/>
            <polygon class="full-logo-title-cls-8" points="98.26 57.97 98.27 38.65 115 48.31 98.26 57.97"/>
            <polygon class="full-logo-title-cls-9" points="131.73 38.65 131.73 19.33 148.46 28.99 131.73 38.65"/>
            <polygon class="full-logo-title-cls-10" points="148.46 67.63 148.46 86.95 131.73 77.29 148.46 67.63"/>
            <polygon class="full-logo-title-cls-11" points="131.73 77.29 131.73 57.97 148.46 67.63 131.73 77.29"/>
            <polygon class="full-logo-title-cls-12" points="148.46 48.31 148.46 67.63 131.73 57.97 148.46 48.31"/>
            <polygon class="full-logo-title-cls-13" points="131.73 57.97 131.73 38.65 148.46 48.31 131.73 57.97"/>
            <polygon class="full-logo-title-cls-14" points="131.73 38.65 131.73 57.97 115 48.31 131.73 38.65"/>
            <polygon class="full-logo-title-cls-3" points="148.46 28.99 148.46 48.31 131.73 38.65 148.46 28.99"/>
            <polygon class="full-logo-title-cls-1" points="98.26 77.29 98.26 57.97 115 67.63 98.26 77.29"/>
            <polygon class="full-logo-title-cls-15" points="131.73 77.29 131.73 96.61 115 86.95 131.73 77.29"/>
            <polygon class="full-logo-title-cls-16" points="115 86.95 115 106.27 98.27 96.61 115 86.95"/>
            <polygon class="full-logo-title-cls-11" points="115 106.27 115 86.95 131.73 96.61 115 106.27"/>
            <polygon class="full-logo-title-cls-17" points="98.27 115.93 98.27 96.61 115 106.27 98.27 115.93"/>
            <polygon class="full-logo-title-cls-18" points="131.73 96.61 131.73 77.29 148.46 86.95 131.73 96.61"/>
            <polygon class="full-logo-title-cls-3" points="98.27 38.64 98.27 57.96 81.54 48.3 98.27 38.64"/>
            <polygon class="full-logo-title-cls-19" points="64.81 38.64 64.81 19.32 81.54 28.98 64.81 38.64"/>
            <polygon class="full-logo-title-cls-20" points="81.54 28.98 81.54 9.66 98.27 19.32 81.54 28.98"/>
            <polygon class="full-logo-title-cls-21" points="81.54 9.66 81.54 28.98 64.81 19.32 81.54 9.66"/>
            <polygon class="full-logo-title-cls-22" points="98.27 0 98.27 19.32 81.54 9.66 98.27 0"/>
            <polygon class="full-logo-title-cls-13" points="64.81 19.32 64.81 38.64 48.08 28.98 64.81 19.32"/>
            <polygon class="full-logo-title-cls-23" points="48.08 48.3 48.08 28.98 64.81 38.64 48.08 48.3"/>
            <polygon class="full-logo-title-cls-24" points="64.81 38.64 64.81 57.96 48.08 48.3 64.81 38.64"/>
            <polygon class="full-logo-title-cls-25" points="48.08 67.62 48.08 48.3 64.81 57.96 48.08 67.62"/>
            <polygon class="full-logo-title-cls-18" points="64.81 57.96 64.81 77.28 48.08 67.62 64.81 57.96"/>
            <polygon class="full-logo-title-cls-2" points="48.08 86.94 48.08 67.62 64.81 77.28 48.08 86.94"/>
            <polygon class="full-logo-title-cls-24" points="81.54 67.62 81.54 48.3 98.27 57.96 81.54 67.62"/>
            <polygon class="full-logo-title-cls-26" points="98.27 96.6 98.27 115.92 81.54 106.26 98.27 96.6"/>
            <polygon class="full-logo-title-cls-27" points="81.54 106.26 81.54 86.94 98.27 96.6 81.54 106.26"/>
            <polygon class="full-logo-title-cls-28" points="81.54 86.94 81.54 106.26 64.81 96.6 81.54 86.94"/>
            <polygon class="full-logo-title-cls-29" points="64.81 96.6 64.81 77.28 81.54 86.94 64.81 96.6"/>
            <polygon class="full-logo-title-cls-30"
                     points="98.26 57.96 114.99 67.62 98.27 77.28 81.54 67.62 81.53 48.3 98.26 38.64 98.27 38.64 114.99 28.98 98.27 19.32 98.27 19.32 81.54 28.98 64.81 38.64 64.8 57.96 64.8 77.28 81.54 86.94 98.26 96.59 98.26 96.6 114.99 86.94 131.72 77.28 131.72 57.96 114.99 48.3 98.26 57.96"/>
            <polygon class="full-logo-title-cls-26" points="98.27 57.96 98.27 77.28 81.54 67.62 98.27 57.96"/>
            <polygon class="full-logo-title-cls-31" points="64.81 77.28 64.81 96.6 48.08 86.94 64.81 77.28"/>
            <path class="full-logo-title-cls-30"
                  d="M16.19,169.15c-21.05,0-22.12-31.53,0-32.34A21.5,21.5,0,0,1,23.64,138l-.76,6.47a15.11,15.11,0,0,0-6.69-1.16c-12.89.45-12.31,19.49,0,19.49a12.13,12.13,0,0,0,1.78-.18V153h6.47v14A16.59,16.59,0,0,1,16.19,169.15Z"/>
            <path class="full-logo-title-cls-30" d="M35.9,169V137.08h16v6.38H42.28v6.38h8.38v6.38H42.28v6.38H52.4V169Z"/>
            <path class="full-logo-title-cls-30"
                  d="M62.17,160.23a14.32,14.32,0,0,0,9.1,2.54c1.87-.13,3.48-1.47,3.3-3.21s-1.52-2.63-3.3-3.26c-5-1.83-9.46-4.37-9.46-9.72a9.35,9.35,0,0,1,9-9.72,18.88,18.88,0,0,1,7.94,1.34l-.8,6.16A14.49,14.49,0,0,0,71.44,143a3.16,3.16,0,0,0-3.17,3.57c.18,1.78,1.74,2.59,3.57,3.21,5,1.83,9.23,4.68,9.23,9.77,0,5.31-3.66,9.37-9.63,9.68a19.94,19.94,0,0,1-10.08-2.32Z"/>
            <path class="full-logo-title-cls-30" d="M96.15,169V143.46H88.21v-6.33h22.26v6.33h-7.94V169Z"/>
            <path class="full-logo-title-cls-30"
                  d="M130.76,159.56l-2.9-8.3-3,8.3-2.32,6L121.3,169h-7.23l13.42-33h.67l13.42,33h-7.18l-1.29-3.43"/>
            <path class="full-logo-title-cls-30" d="M156.89,137.08v25.51H167V169h-16.5V137.08Z"/>
            <path class="full-logo-title-cls-30" d="M182.22,169V143.46h-7.94v-6.33h22.26v6.33H188.6V169Z"/>
            <line class="full-logo-title-cls-30" x1="98.26" y1="57.97" x2="115" y2="48.31"/>
            <line class="full-logo-title-cls-30" x1="98.26" y1="57.97" x2="114.62" y2="67.41"/>
        </g>
    </g>
</svg>