<?xml version="1.0" standalone="no"?>
<!DOCTYPE svg PUBLIC "-//W3C//DTD SVG 20010904//EN"
 "http://www.w3.org/TR/2001/REC-SVG-20010904/DTD/svg10.dtd">
<svg version="1.0" xmlns="http://www.w3.org/2000/svg"
 width="200.000000pt" height="200.000000pt" viewBox="0 0 200.000000 200.000000"
 preserveAspectRatio="xMidYMid meet">
<g transform="translate(0.000000,200.000000) scale(0.100000,-0.100000)">
<path d="M1000 1840 c-11 -11 -20 -32 -20 -47 0 -26 -15 -36 -168 -123 -92
-52 -219 -125 -282 -162 -81 -48 -118 -64 -126 -57 -20 17 -73 13 -94 -6 -29
-26 -27 -79 5 -107 l25 -22 0 -324 0 -324 -30 -28 c-35 -33 -38 -57 -9 -94 22
-28 75 -36 96 -15 9 9 83 -30 295 -152 270 -156 283 -165 280 -191 -4 -31 35
-78 65 -78 38 0 67 25 79 65 9 33 20 45 65 71 30 17 157 90 283 163 163 95
232 129 239 122 18 -18 75 -13 97 9 29 29 25 66 -10 102 l-30 30 0 322 0 323
25 13 c14 8 28 25 32 38 15 62 -37 108 -98 85 -28 -11 -41 -5 -222 99 -395
228 -377 215 -377 248 0 54 -79 81 -120 40z m342 -233 c117 -68 239 -138 271
-156 31 -18 57 -35 57 -37 0 -8 -203 7 -248 18 -30 8 -54 23 -80 53 -20 23
-79 88 -131 144 -51 55 -91 101 -87 101 3 0 101 -55 218 -123z m-404 71 c-19
-24 -65 -81 -102 -128 l-68 -85 -54 3 c-48 3 -57 1 -82 -25 -16 -15 -31 -34
-33 -42 -4 -11 -22 -12 -87 -6 -45 4 -82 10 -82 14 0 7 520 310 534 310 4 1
-7 -18 -26 -41z m285 -107 c115 -126 134 -151 121 -162 -8 -6 -91 -56 -186
-110 l-171 -99 -87 55 -88 56 5 39 c4 28 0 47 -11 65 l-17 26 111 139 c108
135 113 140 149 140 35 0 45 -8 174 -149z m369 -187 c124 -8 124 -13 2 -204
-53 -82 -101 -150 -108 -150 -6 0 -21 3 -32 6 -23 6 -24 17 -41 267 l-6 98 49
-5 c27 -3 88 -8 136 -12z m-209 -106 c4 -57 10 -134 13 -173 6 -70 6 -70 -22
-82 -16 -7 -36 -17 -44 -24 -12 -9 -44 8 -162 83 -81 51 -147 95 -147 98 -1 7
331 198 345 199 7 1 13 -37 17 -101z m-801 75 c4 -2 15 -20 25 -40 11 -25 29
-41 55 -52 l38 -16 0 -85 0 -84 -67 65 c-38 36 -101 97 -142 136 -91 85 -89
98 13 88 39 -4 74 -9 78 -12z m108 -328 c0 -16 -289 -360 -305 -363 -13 -3
-15 41 -15 326 0 255 3 331 13 335 13 5 307 -280 307 -298z m1030 -369 c-7 -7
-36 15 -92 71 -78 78 -81 83 -70 108 20 43 15 98 -13 139 l-24 36 55 87 c31
47 77 118 103 157 l46 71 3 -329 c1 -218 -1 -333 -8 -340z m-822 565 c35 -22
50 -37 44 -43 -20 -20 -197 -116 -204 -112 -5 3 -8 46 -8 95 0 85 1 90 24 99
13 5 27 13 30 19 4 7 17 4 34 -7 15 -10 51 -33 80 -51z m245 -159 l149 -97 2
-71 2 -71 -58 -32 c-32 -18 -64 -29 -71 -25 -67 38 -407 258 -407 263 0 8 212
131 225 130 6 0 77 -44 158 -97z m-5 -320 c1 -4 -71 -49 -160 -101 l-161 -93
-34 16 -33 16 0 88 c0 49 -3 144 -7 211 l-6 122 199 -126 c109 -69 200 -129
202 -133z m-415 -107 c5 -60 5 -60 -30 -83 l-36 -23 -113 27 c-108 27 -114 29
-120 57 -4 21 -1 35 14 50 10 12 75 90 143 172 l124 150 7 -145 c3 -80 8 -172
11 -205z m627 145 c14 -11 33 -20 43 -20 14 0 17 -10 17 -64 0 -36 -4 -67 -8
-70 -4 -3 -50 22 -101 54 l-93 59 54 30 c29 17 55 31 58 31 3 0 16 -9 30 -20z
m254 -73 c106 -98 103 -107 -37 -107 -67 0 -107 4 -115 12 -7 7 -12 39 -12 75
0 61 1 63 33 77 17 8 37 15 42 15 6 0 46 -32 89 -72z m-393 -5 c13 -10 57 -38
97 -62 42 -26 72 -51 72 -61 0 -9 -46 -65 -103 -125 -57 -60 -122 -130 -145
-155 -39 -43 -46 -46 -87 -45 -42 1 -49 6 -134 90 -87 86 -90 91 -88 132 l2
42 175 101 c96 55 178 101 181 101 4 0 17 -8 30 -18z m454 -141 c-11 -9 -463
-270 -505 -291 -25 -12 -14 0 165 188 43 45 86 82 96 82 9 0 22 7 29 15 10 12
36 15 118 15 59 0 102 -4 97 -9z m-1077 -47 c56 -15 72 -22 72 -37 0 -10 12
-30 26 -44 22 -22 32 -25 69 -21 43 5 44 5 104 -62 l60 -67 -202 116 c-111 65
-211 123 -222 130 l-20 12 20 -5 c11 -2 53 -13 93 -22z"/>
</g>
</svg>
