<?xml version="1.0" standalone="no"?>
<!DOCTYPE svg PUBLIC "-//W3C//DTD SVG 20010904//EN"
 "http://www.w3.org/TR/2001/REC-SVG-20010904/DTD/svg10.dtd">
<svg version="1.0" xmlns="http://www.w3.org/2000/svg"
 width="350" height="450" viewBox="0 0 795.000000 1005.000000"
 preserveAspectRatio="xMidYMid meet">
<g transform="translate(0.000000,1005.000000) scale(0.100000,-0.100000)" stroke="none">
<path d="M1226 8241 c-9 -14 8 -21 66 -28 58 -6 55 -5 368 -91 202 -55 225
-59 375 -68 88 -5 221 -9 295 -9 l135 0 3 -56 3 -56 152 -12 c84 -6 197 -18
251 -26 l100 -14 45 27 c25 14 60 37 78 50 l32 24 91 -52 c95 -55 114 -84 65
-96 -14 -3 -25 -12 -25 -19 0 -7 -11 -29 -26 -50 -24 -35 -24 -39 -10 -69 8
-17 18 -43 21 -58 7 -27 6 -28 -26 -22 -19 3 -66 15 -105 25 -143 39 -135 17
19 -54 54 -24 97 -48 96 -53 -1 -5 -17 -40 -36 -79 -34 -73 -73 -208 -73 -256
0 -55 -17 -37 -44 48 -44 136 -97 229 -178 317 -40 43 -100 96 -132 117 -59
39 -58 49 2 28 48 -17 62 -4 17 15 -124 53 -371 75 -498 46 -77 -19 -169 -63
-214 -104 -58 -52 -132 -167 -161 -250 -17 -49 -26 -100 -30 -167 -4 -86 -2
-105 22 -177 24 -71 37 -93 109 -173 l81 -92 -100 7 c-167 13 -183 14 -381 21
-170 7 -193 6 -193 -7 0 -9 7 -21 16 -28 8 -8 36 -41 61 -74 25 -34 52 -64 58
-68 7 -4 43 -50 79 -102 63 -88 70 -95 114 -105 26 -7 65 -17 87 -23 l40 -12
-60 -11 -60 -11 70 -46 c39 -25 101 -71 139 -102 96 -79 114 -87 220 -92 202
-9 273 -14 319 -20 l48 -7 46 -94 c38 -79 50 -95 73 -100 23 -4 36 -21 78
-106 28 -56 69 -144 92 -195 23 -52 75 -162 116 -244 41 -83 74 -152 72 -153
-2 -2 -25 -10 -52 -19 -65 -22 -69 -25 -54 -43 10 -12 8 -18 -12 -34 -14 -10
-30 -19 -37 -19 -20 0 -26 -20 -10 -38 8 -9 40 -68 71 -129 31 -62 62 -113 69
-113 6 0 21 7 31 15 38 29 52 19 87 -62 45 -102 144 -303 162 -327 13 -18 15
-17 65 8 l51 26 20 -26 c30 -38 26 -49 -18 -66 l-39 -15 48 -94 c37 -73 52
-93 66 -91 11 1 78 -5 149 -13 223 -27 545 -37 545 -18 0 3 -17 23 -39 44 -53
54 -115 145 -106 159 4 6 17 15 28 19 15 6 46 56 96 156 40 80 80 149 88 152
7 3 22 -2 32 -11 34 -31 55 -20 89 49 17 36 36 65 41 65 16 0 41 -48 41 -79 0
-16 5 -31 11 -33 11 -4 28 -48 136 -348 74 -207 77 -219 70 -226 -3 -3 -68 -2
-144 3 -77 5 -146 6 -155 1 -12 -6 -18 -20 -18 -43 0 -18 -4 -36 -9 -40 -6 -3
-39 -1 -75 5 -35 5 -189 17 -342 25 -152 8 -335 24 -407 35 -71 11 -132 20
-134 20 -3 0 -3 15 -1 32 2 24 -1 34 -13 36 -13 2 -18 -9 -23 -48 -4 -28 -4
-55 -1 -61 4 -6 -2 -8 -17 -5 -12 3 -68 12 -123 20 -55 9 -135 21 -178 27 -65
10 -81 10 -91 -2 -18 -19 -32 -364 -16 -374 12 -7 176 -43 326 -71 45 -9 95
-24 112 -34 17 -10 68 -71 114 -134 l83 -116 53 0 c46 0 57 -4 90 -34 20 -19
33 -38 29 -42 -4 -4 -243 10 -530 31 -287 21 -534 39 -548 40 -20 0 -46 -23
-121 -106 l-96 -106 -49 4 c-106 8 -734 65 -978 88 -440 42 -403 42 -457 5
-97 -65 -167 -168 -234 -343 -58 -154 -79 -257 -78 -397 0 -122 20 -221 66
-325 26 -57 88 -154 113 -175 19 -16 20 7 -16 -480 -10 -146 -28 -389 -39
-540 -11 -151 -22 -290 -24 -307 -5 -37 8 -51 30 -32 16 13 16 8 -7 -80 -19
-77 -31 -276 -21 -356 5 -44 13 -89 18 -99 7 -18 4 -19 -45 -12 -58 8 -56 10
-65 -76 l-6 -58 54 0 54 0 7 50 c6 46 8 49 33 45 15 -3 185 -21 377 -40 193
-20 388 -40 435 -45 47 -6 127 -10 179 -10 78 0 92 2 79 12 -13 11 -14 24 -6
88 6 41 14 84 18 95 5 11 11 76 14 145 6 133 70 937 86 1080 5 47 16 164 25
260 8 96 18 199 21 228 l6 52 129 64 129 65 6 -38 c6 -38 6 -39 63 -45 150
-17 370 -49 380 -55 6 -4 13 -21 17 -38 l6 -31 -61 -7 c-68 -8 -73 -15 -41
-67 11 -18 20 -37 20 -41 0 -4 -25 -20 -56 -34 l-56 -25 26 -27 c14 -15 26
-32 26 -38 0 -13 -66 -73 -80 -73 -20 0 -9 -21 31 -61 l41 -41 -47 -48 -47
-48 41 -24 c46 -26 49 -39 20 -87 -20 -33 -20 -35 -2 -45 10 -6 34 -13 53 -16
l35 -5 -3 -58 -4 -57 60 0 60 0 18 -51 c23 -62 36 -74 64 -59 12 6 24 9 26 7
5 -4 23 -309 24 -386 l0 -34 -71 7 c-75 7 -103 -2 -92 -30 5 -14 -26 -15 -258
-9 -145 4 -269 8 -275 10 -17 5 -51 120 -78 269 -14 77 -26 147 -26 156 0 16
116 160 220 273 l45 49 103 -7 c98 -7 104 -6 100 11 -4 20 -40 28 -175 37 -66
4 -73 2 -73 -14 0 -10 -6 -22 -13 -26 -8 -4 -71 -75 -141 -157 -108 -125 -127
-152 -123 -175 2 -14 16 -71 30 -126 15 -55 35 -143 46 -195 17 -81 17 -97 6
-110 -12 -13 -11 -30 5 -110 10 -52 31 -156 45 -230 14 -74 28 -145 30 -158 5
-19 12 -22 55 -22 35 0 50 4 50 13 0 7 -14 71 -30 143 -48 200 -59 258 -55
262 8 8 547 -16 555 -25 8 -7 83 -249 110 -350 l11 -43 797 0 797 0 -3 144 -3
144 28 39 c16 22 41 54 56 73 l28 33 159 5 c88 3 160 2 160 -2 0 -13 -88 -122
-111 -138 -20 -13 -22 -22 -21 -84 1 -38 5 -102 8 -141 l6 -73 113 0 113 0 -1
258 -2 257 -25 3 c-70 8 -68 5 -72 97 -2 61 0 85 9 85 6 0 15 5 19 12 4 6 8
134 9 282 2 249 4 282 29 401 14 72 26 140 26 152 0 13 -18 41 -43 65 -67 67
-86 116 -93 241 l-7 107 24 0 c13 0 103 -9 199 -21 286 -33 286 -33 326 -9 65
41 86 86 119 247 16 78 -29 249 -91 346 -27 44 -31 46 -75 47 -56 0 -550 36
-714 51 -105 10 -127 15 -175 43 -30 17 -68 38 -84 46 l-30 15 26 3 c13 2 83
-1 153 -6 135 -10 179 -4 169 22 -6 16 34 77 109 169 34 41 38 50 26 62 -10 9
-215 28 -749 70 -404 31 -814 63 -910 71 -237 19 -682 54 -697 54 -24 0 -13
17 67 114 l81 96 42 -5 c23 -3 206 -19 407 -36 201 -16 433 -36 515 -44 83 -9
159 -16 170 -16 11 0 130 -9 265 -20 135 -10 337 -26 450 -34 291 -22 398 -32
409 -40 7 -4 3 -20 -9 -43 -26 -48 -25 -96 4 -157 27 -58 57 -88 105 -104 41
-13 111 -14 143 -2 15 6 63 4 129 -4 57 -7 260 -28 452 -46 191 -18 347 -37
347 -41 0 -5 -8 -12 -17 -15 -44 -16 -144 -87 -184 -131 -172 -184 -357 -621
-359 -844 0 -58 9 -57 -206 -29 -82 11 -178 22 -212 26 l-64 6 6 -28 c3 -15 8
-419 11 -898 l5 -870 394 -3 395 -2 22 70 c13 38 30 72 38 76 34 13 233 16
361 5 247 -22 385 -48 608 -117 73 -23 127 -34 155 -32 l42 3 -60 22 c-85 31
-277 88 -361 107 -189 42 -529 71 -659 57 -44 -5 -81 -8 -83 -7 -1 2 0 10 4
19 12 33 81 42 314 42 209 0 234 -2 355 -28 174 -38 346 -96 481 -163 105 -52
115 -55 175 -52 l64 3 -82 53 c-86 55 -200 111 -318 155 -64 25 -297 85 -388
101 -52 10 -372 8 -474 -2 -46 -4 -83 -5 -83 -2 0 4 59 171 131 371 72 200
148 414 169 474 21 61 41 117 44 126 6 13 15 15 44 10 20 -4 44 -5 53 -3 10 2
35 48 65 119 54 129 122 242 218 366 34 45 80 109 101 142 22 33 43 62 47 65
15 11 91 217 92 250 l1 34 -70 17 c-138 32 -145 32 -145 9 0 -44 -66 -155
-213 -358 -31 -44 -57 -85 -57 -90 0 -6 -5 -14 -11 -18 -31 -19 41 222 117
387 95 209 203 364 306 439 l71 52 131 -11 c72 -7 165 -16 206 -21 41 -6 107
-11 145 -12 39 -1 73 -3 77 -5 5 -2 -28 -22 -72 -44 -117 -59 -282 -226 -368
-372 -13 -24 -380 -980 -456 -1191 -26 -71 -46 -135 -44 -143 3 -13 109 -55
563 -218 326 -117 373 -134 408 -151 37 -17 38 -17 56 2 10 10 47 87 83 169
36 83 92 210 124 282 32 73 59 131 61 129 3 -3 -295 -766 -302 -774 -2 -2 -30
14 -62 36 -81 55 -213 101 -240 84 -19 -13 -44 -73 -38 -92 4 -13 27 -26 70
-39 125 -39 205 -92 205 -136 0 -36 -10 -35 -63 6 -67 50 -164 98 -207 101
-36 3 -50 -13 -65 -72 -5 -23 -1 -28 42 -49 66 -32 163 -102 202 -146 57 -65
15 -154 426 895 57 146 115 296 129 334 l26 68 0 1019 0 1019 -53 0 c-30 0
-206 14 -393 30 -186 17 -395 35 -464 41 -69 6 -127 13 -129 15 -2 2 16 26 40
55 l43 52 86 -7 c47 -4 155 -11 240 -16 134 -9 340 -25 568 -46 l62 -6 0 716
0 716 -27 0 c-16 0 -82 5 -148 10 -66 5 -228 16 -360 25 -281 19 -305 22 -304
38 0 7 44 100 97 207 l97 195 47 3 c26 2 160 -6 296 -17 322 -27 302 -28 302
8 l0 28 -112 7 c-225 13 -434 27 -465 32 l-31 5 53 127 c79 190 178 417 225
516 l41 88 47 -5 c26 -4 91 -9 145 -13 l97 -7 0 47 c0 25 -1 47 -2 47 -2 1
-55 5 -118 9 -63 5 -161 14 -217 20 -90 11 -104 11 -117 -3 -9 -9 -16 -21 -16
-28 0 -12 -88 -227 -195 -474 -23 -55 -62 -147 -85 -205 -24 -58 -47 -109 -52
-114 -4 -6 -8 -18 -8 -28 0 -14 11 -18 57 -20 57 -3 58 -3 57 -33 -2 -31 -154
-357 -181 -387 -8 -9 -12 -21 -9 -26 6 -10 -15 -362 -34 -582 -5 -63 -20 -266
-31 -450 l-22 -335 -57 -77 -58 -77 -7 -117 c-4 -64 -11 -130 -15 -145 -7 -24
-5 -31 13 -41 12 -6 37 -12 57 -14 19 -2 69 -5 110 -9 41 -3 130 -10 198 -17
l122 -11 0 -46 c0 -82 -7 -93 -54 -89 l-41 3 -13 -125 c-8 -69 -18 -129 -22
-134 -6 -5 -71 -3 -162 6 -147 15 -154 15 -180 -3 -33 -24 -55 -24 -96 1 -27
16 -62 22 -185 30 -203 13 -405 29 -444 36 -26 4 -32 9 -30 27 2 21 -4 22
-228 44 -126 12 -233 22 -236 22 -8 1 -162 245 -180 284 -7 15 -20 27 -31 27
-22 0 -22 2 1 48 10 20 28 68 41 106 33 102 27 127 -61 231 -41 48 -85 100
-97 115 -17 20 -31 64 -47 140 -48 224 -164 521 -262 669 -89 133 -162 205
-258 252 l-83 41 24 52 c25 54 68 226 79 311 6 47 2 88 -25 243 -9 52 -8 66 5
86 15 23 17 23 78 10 77 -16 98 -24 92 -34 -3 -4 12 -6 32 -4 21 3 81 8 134
13 59 5 111 15 135 27 34 17 95 83 106 114 2 7 33 2 91 -15 48 -14 105 -25
127 -25 33 0 145 15 359 49 30 4 69 5 88 1 41 -10 47 -3 102 131 48 118 87
209 137 323 38 87 40 90 93 113 30 13 66 23 81 21 25 -2 47 12 146 97 31 26
43 111 45 307 1 152 -6 211 -25 226 -6 6 -31 14 -56 20 -88 21 -137 34 -275
74 -77 22 -145 42 -151 43 -11 3 -34 91 -34 129 0 27 -26 109 -48 154 -20 38
-100 80 -252 130 -99 33 -302 77 -405 87 -33 4 -91 13 -129 21 -57 12 -72 12
-85 1 -20 -16 -67 -37 -86 -37 -7 0 -35 13 -62 30 -26 16 -60 32 -75 36 -42 9
-36 -17 8 -41 42 -22 124 -111 161 -172 72 -123 87 -373 31 -528 -11 -33 -39
-94 -60 -137 -36 -69 -43 -96 -73 -281 -18 -113 -36 -210 -39 -215 -7 -12
-177 -68 -308 -103 -49 -13 -88 -26 -88 -29 0 -3 35 -5 77 -5 84 0 223 -15
223 -23 0 -3 -20 -40 -45 -83 -25 -43 -45 -81 -45 -84 0 -3 -12 -24 -26 -46
-25 -41 -27 -41 -72 -36 -65 8 -176 44 -202 65 l-22 17 46 94 c25 52 46 103
46 113 0 10 6 19 13 20 34 4 47 9 175 70 62 30 89 48 107 77 52 78 52 112 -3
274 l-26 78 22 15 c23 15 81 76 125 129 105 128 134 343 68 515 -31 82 -119
209 -177 256 -64 52 -191 106 -269 115 -63 7 -225 -6 -261 -21 -17 -7 -30 -3
-55 16 -89 66 -257 89 -360 49 -10 -4 -19 3 -28 21 -11 25 -9 30 26 66 35 36
36 40 24 61 -8 12 -23 36 -34 54 l-19 32 69 -5 c37 -3 101 -10 141 -15 40 -5
98 -9 128 -9 l54 0 2 38 c1 20 2 45 1 55 0 21 2 21 183 -3 82 -11 201 -21 264
-21 63 0 156 -4 205 -10 50 -6 144 -16 210 -24 66 -7 128 -16 138 -20 9 -4 17
-3 17 2 0 10 -227 121 -315 155 -27 11 -63 26 -80 33 -38 18 -277 44 -420 46
-60 0 -173 7 -251 14 -156 15 -565 40 -661 40 -35 0 -64 -4 -65 -10 -2 -5 48
-30 111 -55 107 -44 140 -67 126 -90 -4 -6 -83 -10 -203 -10 l-197 0 -50 33
-50 32 65 2 c92 4 150 13 150 23 0 14 -35 30 -77 34 -21 3 -108 34 -194 69
l-156 65 -224 6 c-123 3 -518 9 -878 12 -360 2 -658 7 -662 10 -4 2 -10 0 -13
-5z m1354 -503 c30 -10 93 -44 139 -75 94 -64 154 -135 191 -229 13 -33 28
-65 34 -73 17 -22 9 -179 -13 -256 -35 -117 -121 -243 -200 -295 -38 -24 -59
-31 -87 -28 l-38 3 63 39 c82 52 143 122 192 223 66 135 71 252 16 372 -22 47
-111 140 -194 202 -111 83 -239 107 -380 71 -94 -24 -150 -56 -211 -121 -100
-107 -134 -194 -135 -347 0 -95 2 -104 36 -176 37 -77 109 -161 189 -218 50
-37 27 -40 -40 -6 -43 22 -112 91 -170 171 -31 42 -62 159 -62 230 0 107 30
201 109 342 29 51 86 109 130 133 85 44 156 60 266 58 77 -1 127 -7 165 -20z
m-220 -118 c0 -60 0 -60 -29 -60 -37 0 -140 -59 -174 -99 -50 -60 -72 -120
-75 -214 -4 -79 -1 -93 23 -142 28 -58 91 -118 142 -135 26 -10 33 -7 64 22
20 18 55 47 80 63 24 17 91 63 149 103 l105 73 3 -40 c4 -51 -31 -133 -71
-167 -22 -19 -27 -28 -18 -37 8 -8 18 -6 38 9 78 58 124 162 125 280 l0 72 51
20 c33 13 56 16 62 10 6 -5 10 -61 10 -126 0 -113 -1 -120 -34 -187 -41 -84
-143 -190 -215 -224 -106 -49 -247 -48 -364 5 -72 32 -174 135 -210 211 -25
54 -27 67 -27 188 0 156 12 187 110 292 67 74 139 119 207 132 24 5 44 9 46
10 1 1 2 -26 2 -59z m144 49 c79 -14 137 -42 199 -98 50 -46 107 -124 107
-147 0 -12 -80 -54 -101 -54 -4 0 -10 8 -14 19 -9 30 -97 111 -144 133 -24 11
-70 25 -102 31 l-59 11 0 58 c0 56 1 58 27 58 15 0 54 -5 87 -11z m1330 -207
c-24 -49 -52 -122 -62 -163 -13 -51 -21 -68 -25 -54 -11 39 -19 195 -12 250
l6 55 69 0 68 0 -44 -88z m610 41 c-4 -16 -9 -31 -13 -34 -3 -3 -45 -18 -93
-33 -148 -47 -253 -130 -306 -245 -24 -51 -27 -67 -27 -181 0 -116 2 -130 29
-193 40 -95 166 -230 197 -211 7 4 -14 32 -53 73 -112 115 -145 198 -135 346
4 49 11 106 17 126 15 52 78 138 133 180 67 50 206 103 269 101 28 0 52 -3 54
-5 2 -2 0 -30 -4 -63 l-7 -59 -42 3 c-23 2 -68 -4 -99 -13 -151 -44 -239 -160
-238 -315 0 -55 5 -75 31 -120 64 -110 137 -165 256 -190 44 -9 70 -9 115 0
75 16 100 30 162 90 69 67 93 125 93 218 -1 74 -1 74 31 87 73 30 73 30 80
-19 9 -55 -16 -194 -45 -254 -26 -53 -107 -143 -162 -180 -83 -55 -120 -66
-199 -59 -40 4 -188 16 -328 27 -140 11 -297 25 -349 31 -65 7 -97 7 -104 0
-15 -15 27 -159 75 -255 57 -113 82 -148 132 -183 40 -28 60 -34 198 -53 84
-11 161 -23 170 -26 10 -3 34 -25 53 -49 l36 -43 -31 -68 c-16 -37 -30 -73
-30 -80 0 -7 12 -25 26 -39 14 -14 24 -28 22 -30 -2 -2 -35 1 -73 6 -39 5
-124 14 -190 19 -66 5 -246 23 -400 39 -154 17 -347 37 -430 46 -82 8 -166 20
-186 26 l-36 11 2 102 c1 55 0 106 -3 113 -5 15 -74 26 -112 18 -30 -7 -30 -8
-28 -58 l3 -52 -77 -3 -76 -3 3 -50 c2 -33 16 -76 38 -122 20 -40 68 -142 108
-227 39 -85 98 -208 130 -272 32 -65 57 -118 55 -118 -3 0 -11 -3 -19 -6 -19
-7 -58 62 -167 296 -153 330 -188 395 -220 407 -21 8 -38 29 -65 83 -20 40
-35 74 -33 76 2 2 41 -4 87 -13 108 -21 115 -17 116 68 l0 64 30 -3 c17 -1 74
-10 128 -18 54 -9 101 -13 104 -10 3 3 -12 38 -33 78 -91 172 -190 383 -181
387 13 5 226 -19 251 -29 18 -6 16 -10 -22 -36 -51 -35 -51 -32 10 -217 49
-151 68 -177 130 -177 24 0 120 -9 213 -19 94 -11 208 -22 255 -25 47 -4 109
-9 138 -12 28 -4 52 -4 52 0 0 3 -16 28 -35 54 -36 51 -88 158 -111 232 -13
41 -44 184 -44 203 0 4 24 5 53 2 28 -3 116 -12 195 -20 78 -8 146 -16 150
-19 4 -3 14 -1 20 3 9 6 1 21 -28 57 -23 27 -57 82 -77 122 -34 67 -37 81 -41
180 -3 87 0 119 16 169 45 143 154 282 260 330 87 41 155 62 195 63 36 0 37
-1 31 -27z m179 -110 c58 -30 124 -81 174 -133 30 -32 89 -137 81 -145 -2 -2
-24 -13 -50 -24 -50 -21 -59 -18 -73 28 -14 45 -102 127 -166 156 -59 26 -61
28 -55 57 3 17 6 43 6 59 0 37 15 37 83 2z m737 2 c74 -13 151 -26 170 -30
118 -20 157 -30 178 -43 19 -13 22 -12 22 1 0 8 -7 20 -15 27 -33 27 -11 28
63 1 123 -45 212 -96 212 -122 0 -4 -48 5 -107 20 -73 19 -137 29 -197 30 -49
1 -175 17 -284 36 -107 19 -211 35 -231 36 -28 0 -42 8 -64 35 l-29 34 74 0
c40 0 134 -11 208 -25z m45 -195 c175 -26 365 -59 375 -65 8 -5 42 -97 37
-100 -10 -9 -512 71 -539 86 -10 5 -26 9 -37 9 -12 0 -23 11 -29 28 -5 15 -13
35 -17 45 -6 15 -1 17 36 17 24 0 103 -9 174 -20z m-420 -47 c9 -27 19 -86 22
-133 9 -144 -31 -257 -130 -365 -84 -93 -124 -117 -187 -113 l-53 3 51 33
c111 72 194 178 229 296 20 65 19 197 -2 255 -8 24 -14 45 -13 46 47 35 64 30
83 -22z m-419 -45 c-12 -121 -3 -111 -163 -192 -101 -51 -146 -69 -150 -60
-16 42 29 150 92 222 45 51 142 102 194 102 l34 0 -7 -72z m1384 -143 c46 -23
131 -40 138 -28 5 8 33 2 90 -17 45 -15 96 -30 112 -34 64 -12 130 -48 136
-73 7 -28 0 -280 -8 -288 -3 -3 -25 2 -49 10 -24 9 -75 23 -114 31 -132 28
-145 34 -139 63 6 32 -22 199 -36 216 -6 7 -27 16 -48 19 -20 4 -69 16 -109
28 -62 19 -73 26 -87 55 -9 19 -16 36 -16 39 0 9 103 -7 130 -21z m-510 -35
c96 -11 220 -30 275 -43 l100 -22 5 -68 5 -69 -55 7 c-30 4 -91 15 -135 26
-44 10 -136 25 -205 33 -139 17 -189 26 -194 35 -2 3 -7 32 -11 64 -9 69 -29
65 215 37z m1070 -106 c22 -9 45 -25 50 -35 16 -28 13 -319 -2 -318 -23 1
-113 36 -112 42 8 51 12 216 6 265 -9 70 -7 72 58 46z m-550 -165 c30 -11 70
-24 88 -30 32 -10 41 -23 22 -34 -5 -3 -10 -18 -10 -31 0 -37 -76 -252 -85
-242 -2 2 3 30 11 63 24 93 22 95 -149 129 -81 16 -152 26 -160 23 -7 -2 -19
-36 -27 -73 -7 -38 -19 -84 -27 -103 -8 -18 -11 -37 -6 -41 9 -9 279 -84 338
-95 22 -4 90 -27 152 -53 l112 -45 -23 -61 c-13 -34 -38 -92 -55 -131 -18 -38
-50 -117 -72 -175 -22 -58 -44 -109 -48 -113 -5 -5 -93 10 -197 32 -104 23
-223 49 -264 58 -41 8 -76 17 -78 18 -1 1 2 15 7 31 5 16 24 76 42 134 17 58
33 106 34 107 1 2 34 -6 73 -17 120 -33 112 -40 158 114 18 59 24 94 18 103
-10 16 -189 67 -208 60 -6 -3 -17 -35 -24 -73 -14 -77 -26 -118 -89 -321 -39
-124 -72 -188 -88 -172 -2 3 18 75 45 159 61 194 160 573 167 647 4 32 11 57
19 60 8 3 63 -7 123 -21 60 -14 116 -26 124 -26 26 0 27 28 2 85 l-25 55 23 0
c12 -1 47 -10 77 -21z m1670 -429 c0 -6 -9 -29 -19 -53 -11 -23 -62 -143 -114
-267 -53 -124 -114 -264 -136 -312 l-40 -88 -43 0 c-24 0 -48 4 -55 8 -10 6
99 271 283 690 14 30 17 32 69 32 30 0 55 -5 55 -10z m-4624 -309 c31 -18 155
-171 166 -205 6 -21 21 -44 32 -51 26 -17 324 -145 546 -234 134 -54 177 -67
230 -70 36 -1 66 -4 68 -5 4 -5 -30 -153 -39 -168 -7 -10 -12 -11 -26 -1 -208
144 -402 162 -645 60 l-37 -16 -28 45 c-15 24 -32 44 -38 44 -5 0 -34 -11 -64
-25 -30 -14 -55 -24 -56 -23 -42 64 -73 126 -195 388 -70 150 -121 260 -128
272 -4 8 199 -2 214 -11z m1554 -308 c0 -3 -8 -17 -19 -31 -10 -15 -60 -108
-111 -207 -51 -99 -98 -186 -104 -192 -9 -10 -16 -10 -34 3 l-22 15 51 102
c28 56 82 157 121 224 l70 122 24 -16 c13 -8 24 -17 24 -20z m93 -250 c52
-191 48 -343 -15 -505 -41 -108 -54 -108 -16 -1 28 77 32 104 36 221 5 144 -7
231 -39 294 -23 46 -23 48 0 48 14 0 22 -14 34 -57z m-68 17 c41 -79 57 -268
35 -406 -14 -85 -56 -196 -65 -169 -25 81 -90 169 -150 202 -15 9 -16 14 -5
44 10 25 26 40 64 59 30 15 64 44 84 70 30 39 33 50 29 88 -3 27 -17 61 -36
88 -17 25 -31 47 -31 49 0 3 13 5 30 5 23 0 33 -7 45 -30z m-1169 -515 c25
-60 65 -147 90 -193 44 -82 44 -82 22 -91 -13 -5 -57 -25 -98 -44 -126 -58
-115 -60 -156 30 -20 43 -52 112 -71 153 -19 41 -49 107 -65 145 -17 39 -59
125 -94 191 -35 67 -64 126 -64 131 0 10 42 31 165 81 l70 29 78 -161 c43 -89
99 -210 123 -271z m314 352 c56 -13 177 -78 227 -121 24 -21 26 -26 16 -49 -7
-14 -27 -34 -45 -43 -18 -9 -34 -18 -36 -19 -2 -1 7 -19 19 -39 25 -43 22 -50
-15 -36 -58 22 -69 15 -95 -55 -20 -57 -29 -69 -67 -91 -42 -25 -151 -64 -178
-64 -7 0 -24 26 -39 58 -14 31 -58 126 -96 210 -39 83 -71 159 -71 167 0 19
36 37 130 64 41 13 80 24 85 26 24 8 114 4 165 -8z m523 -63 c28 -19 67 -37
85 -40 30 -6 33 -9 27 -33 -7 -28 -290 -597 -307 -619 -21 -25 -218 30 -218
60 0 20 345 676 353 671 4 -2 31 -20 60 -39z m-1244 -131 c34 -64 60 -117 58
-118 -1 0 -15 -9 -30 -19 -16 -10 -30 -16 -32 -14 -5 6 -115 228 -115 233 0 3
47 33 57 35 1 0 29 -53 62 -117z m1404 -78 c-2 -26 -97 -235 -107 -235 -12 0
-56 24 -56 31 0 4 27 64 61 134 59 124 61 126 82 112 15 -10 21 -24 20 -42z
m-689 -301 c-64 -172 -80 -208 -91 -211 -6 -2 -14 4 -17 14 -4 10 -13 26 -20
36 -14 18 -16 18 -55 -1 l-41 -20 -20 26 -21 26 72 33 c73 34 75 36 54 85 -5
14 6 20 64 38 39 11 73 25 76 30 3 6 10 10 15 10 5 0 -2 -30 -16 -66z m1007
-11 c84 -80 158 -181 223 -302 84 -157 84 -157 53 -232 -14 -35 -31 -84 -38
-109 -6 -25 -13 -51 -15 -59 -3 -10 -11 -7 -28 12 -20 22 -34 26 -120 32 -53
4 -99 11 -102 16 -3 5 -2 24 1 43 6 30 12 35 51 45 24 6 44 15 44 19 0 4 -14
43 -31 87 -17 44 -41 109 -53 145 -13 36 -46 127 -75 202 -29 76 -49 142 -46
148 3 5 22 10 41 10 29 0 46 -10 95 -57z m49 22 c92 -68 173 -178 264 -361 91
-184 157 -366 191 -528 31 -153 43 -540 15 -509 -4 4 -10 71 -14 148 -10 232
-28 353 -75 508 -98 323 -244 590 -400 735 -55 51 -46 55 19 7z m-1169 -280
c7 -22 23 -64 36 -94 13 -30 22 -56 20 -58 -2 -2 -47 2 -100 9 l-95 12 -36 67
-35 68 82 40 82 39 17 -21 c9 -11 22 -39 29 -62z m311 52 l56 -19 -54 -102
-54 -101 -76 2 c-42 1 -78 3 -80 6 -6 6 31 90 78 175 32 58 44 72 57 66 9 -4
41 -16 73 -27z m-722 -363 c159 -26 207 -29 212 -14 3 11 335 -15 373 -30 21
-8 21 -9 8 -191 -15 -202 -16 -211 -35 -204 -7 3 -71 14 -143 25 -121 20 -198
33 -335 59 -30 5 -120 24 -199 40 -79 17 -145 31 -147 31 -2 0 -4 72 -4 161
l0 161 63 -7 c34 -4 127 -18 207 -31z m1929 -156 c38 -123 57 -231 71 -393 14
-174 13 -234 -5 -241 -15 -6 -34 13 -104 106 -55 73 -64 156 -47 408 5 87 33
222 46 222 4 0 21 -46 39 -102z m-744 62 c72 -6 156 -17 188 -25 68 -17 99
-19 113 -6 10 10 134 2 134 -8 0 -4 -13 -14 -29 -24 -37 -21 -89 -99 -97 -144
-17 -91 50 -163 159 -171 40 -3 57 -9 57 -18 0 -18 6 -18 -250 6 -210 19 -422
48 -528 71 l-54 11 7 157 c4 86 10 160 13 165 2 5 39 6 81 2 42 -3 135 -11
206 -16z m-299 -395 c60 -9 161 -24 224 -35 63 -11 166 -25 228 -31 l112 -12
77 -101 c42 -56 88 -113 101 -128 14 -15 24 -30 21 -32 -2 -3 -140 5 -306 18
l-301 23 -34 29 c-19 16 -79 78 -133 137 -54 59 -106 112 -117 118 -23 13 -23
29 0 29 10 0 68 -7 128 -15z m1305 -76 c44 -70 43 -115 -8 -231 -25 -56 -44
-71 -59 -46 -5 7 -8 93 -9 190 l-1 178 23 -22 c13 -12 37 -43 54 -69z m-4116
-239 c115 -12 211 -23 213 -25 3 -2 -16 -30 -41 -62 -25 -32 -59 -87 -76 -123
-44 -97 -93 -307 -99 -424 l-5 -98 -61 5 c-34 4 -167 11 -296 18 -129 7 -239
15 -243 19 -14 12 21 202 54 297 57 162 116 270 193 351 69 72 71 74 111 68
22 -3 134 -15 250 -26z m565 -55 c140 -14 277 -28 305 -31 l49 -6 -49 -25
c-67 -33 -127 -93 -180 -178 -76 -121 -109 -216 -136 -384 l-11 -74 -207 7
c-113 4 -227 9 -253 13 l-48 6 0 57 c0 123 55 359 108 465 38 77 120 175 145
175 12 0 137 -11 277 -25z m612 -205 c15 -79 30 -145 32 -148 3 -2 90 -10 193
-18 103 -7 251 -17 328 -23 77 -6 208 -16 290 -22 83 -6 184 -14 225 -18 l75
-7 -83 -28 -83 -28 -177 12 c-97 6 -295 20 -438 30 -144 11 -276 17 -293 14
-37 -8 -70 -46 -103 -120 -32 -72 -31 -227 1 -301 29 -66 90 -123 131 -123 38
0 38 11 1 28 -35 16 -87 90 -102 146 -28 102 5 271 63 329 l23 23 140 -12
c293 -25 542 -44 582 -44 59 0 61 -15 5 -30 -26 -7 -51 -16 -55 -20 -22 -19
85 -150 122 -150 6 0 25 -9 43 -19 17 -11 35 -18 40 -15 4 3 21 -3 37 -12 21
-12 34 -15 43 -7 7 5 40 9 73 8 35 -1 69 4 82 11 12 8 24 10 28 5 5 -9 -40
-39 -318 -213 l-117 -74 -263 28 c-247 26 -387 34 -375 23 2 -3 133 -21 289
-41 156 -19 286 -38 289 -40 2 -3 -9 -15 -24 -28 -22 -17 -28 -28 -23 -45 5
-20 2 -22 -21 -17 -15 3 -67 10 -117 16 -49 6 -137 17 -195 25 -58 8 -177 23
-265 35 -237 31 -221 26 -234 68 -6 21 -22 159 -36 307 -14 149 -30 308 -35
355 -19 167 -23 157 83 228 50 34 97 60 102 59 6 -2 22 -68 37 -147z m3114
-92 c14 -28 14 -28 -19 -28 -37 0 -270 28 -304 36 l-22 6 27 39 c20 29 32 38
47 33 11 -3 36 -8 56 -11 32 -5 38 -2 44 18 5 13 16 44 27 68 l18 43 56 -88
c31 -49 62 -101 70 -116z m-1430 -87 c-3 -5 1 -17 9 -27 8 -10 15 -29 15 -40
0 -12 6 -24 14 -27 9 -4 12 -14 9 -26 -3 -12 0 -28 7 -36 10 -12 10 -18 0 -30
-10 -12 -10 -18 0 -30 10 -12 10 -18 0 -29 -6 -8 -11 -23 -10 -33 3 -24 -10
-63 -21 -63 -5 0 -50 9 -101 19 -51 11 -110 23 -130 26 -21 3 -38 8 -38 10 0
2 28 46 61 97 129 196 128 195 160 196 16 0 27 -3 25 -7z m-308 -18 c-45 -88
-58 -167 -38 -229 12 -34 11 -39 -8 -55 -13 -10 -31 -14 -47 -12 -14 3 -32 0
-40 -7 -8 -6 -19 -9 -25 -5 -6 4 -17 1 -25 -5 -16 -14 -194 -20 -202 -8 -2 5
-15 8 -27 6 -13 -1 -31 5 -40 15 -10 9 -26 17 -35 17 -10 0 -24 7 -31 15 -7 8
-21 15 -31 15 -12 0 -19 7 -19 20 0 10 -8 23 -17 29 -22 12 -14 16 197 82 85
26 202 66 260 88 104 40 135 48 128 34z m435 -53 c24 -16 107 -64 185 -106 78
-41 144 -80 147 -85 3 -4 -6 -11 -19 -15 -29 -7 -96 -77 -96 -100 0 -10 -6
-14 -17 -11 -10 3 -40 8 -68 11 -116 15 -184 30 -189 43 -3 7 -1 13 5 13 5 0
7 11 3 25 -3 14 -1 31 4 38 7 7 9 34 6 63 -3 27 -5 61 -5 76 0 14 -6 32 -14
38 -14 12 -10 40 6 40 4 0 28 -13 52 -30z m2185 -31 l284 -23 19 -27 19 -27
-56 -69 c-115 -138 -207 -301 -275 -486 -52 -140 -89 -317 -71 -340 5 -7 5
-30 -1 -56 l-9 -44 -76 6 c-85 7 -532 60 -656 78 l-79 12 6 76 c15 189 126
476 263 682 70 106 112 150 193 203 74 49 32 48 439 15z m-1388 -154 c368 -27
339 -18 386 -120 77 -167 65 -362 -30 -460 -35 -37 -49 -45 -78 -45 -41 0
-376 38 -428 49 l-35 7 -1 179 c0 206 -11 257 -64 324 -38 46 -84 71 -134 71
-18 0 -41 7 -52 15 -17 14 -13 15 46 9 36 -3 211 -16 390 -29z m-860 -129 c80
-14 171 -28 203 -31 31 -4 57 -11 57 -15 0 -4 -21 -10 -46 -13 -124 -14 -225
-164 -186 -276 6 -17 8 -31 4 -31 -13 -1 -272 104 -272 110 1 3 15 14 32 25
46 29 70 67 75 118 5 37 1 54 -21 91 -31 53 -32 59 -8 52 9 -3 82 -17 162 -30z
m-470 -21 c-38 -74 -14 -183 46 -216 30 -16 31 -29 1 -29 -12 0 -28 -9 -35
-20 -7 -11 -22 -20 -33 -20 -14 0 -19 -5 -16 -14 5 -13 -8 -25 -24 -22 -4 0
-15 -6 -25 -15 -11 -9 -29 -20 -41 -23 -11 -4 -27 -13 -33 -21 -7 -8 -23 -15
-35 -15 -12 0 -28 -7 -36 -16 -7 -9 -22 -14 -36 -11 -14 2 -31 -2 -40 -11 -12
-12 -19 -13 -34 -4 -11 7 -30 10 -43 6 -13 -3 -27 -1 -30 5 -4 6 -20 11 -36
11 -15 0 -30 7 -34 15 -3 8 -15 15 -26 15 -13 0 -19 4 -14 11 4 7 -3 19 -16
29 l-22 17 53 38 c65 47 522 335 526 331 2 -1 -6 -20 -17 -41z m-2330 -51 c65
-21 147 -73 294 -188 l129 -101 -7 -109 c-4 -61 -10 -114 -12 -118 -3 -4 -29
-6 -57 -3 -29 3 -140 10 -247 15 -503 25 -640 34 -651 40 -8 5 -8 25 -1 73 12
77 37 115 150 231 170 175 253 208 402 160z m3181 -85 c28 -45 -9 -114 -68
-125 -32 -6 -40 -3 -60 20 -30 35 -29 57 4 96 24 29 31 32 71 27 24 -3 48 -11
53 -18z m2232 -16 c59 -18 -48 -248 -224 -478 -121 -157 -195 -287 -225 -395
-12 -43 -12 -44 -13 -12 -1 18 6 63 13 100 8 37 22 108 32 157 20 110 68 206
170 346 81 111 148 228 158 276 7 30 9 31 39 21 18 -5 40 -12 50 -15z m-1970
-253 c-1 -127 -4 -239 -7 -248 -5 -16 71 -131 126 -189 l21 -23 -22 -122 c-35
-196 -49 -318 -38 -325 7 -4 7 -64 3 -172 -4 -91 -8 -174 -7 -183 0 -12 -8
-18 -22 -18 -12 0 -102 -5 -201 -11 -150 -10 -179 -10 -187 2 -11 19 -18 88
-22 240 l-4 127 51 5 c103 11 153 27 195 64 67 57 85 102 86 213 0 81 -3 101
-23 133 -27 46 -47 213 -56 461 -7 172 -2 226 20 226 8 0 28 13 46 29 18 16
35 28 38 26 3 -2 4 -107 3 -235z m-896 133 c113 -37 121 -43 178 -138 29 -49
53 -91 51 -92 -1 -1 -22 5 -46 13 -55 19 -107 12 -169 -22 -51 -28 -105 -93
-117 -138 -6 -27 -8 -28 -15 -10 -17 48 -70 339 -64 361 4 16 13 23 31 23 13
0 27 7 30 15 7 17 46 13 121 -12z m778 -489 l7 -77 -26 20 c-88 70 -286 49
-392 -40 -18 -15 -33 -27 -35 -27 -2 0 1 84 8 187 6 104 12 204 12 224 l1 36
44 -22 c62 -31 157 -40 223 -20 55 16 107 66 121 115 4 15 11 -46 18 -147 6
-94 15 -206 19 -249z m-597 200 c49 -34 7 -127 -65 -140 -31 -6 -39 -3 -55 16
-58 71 44 178 120 124z m-2808 -70 c256 -15 466 -28 468 -29 1 -1 -26 -31 -61
-66 -68 -69 -107 -138 -138 -249 -55 -189 -21 -350 95 -464 41 -40 50 -55 48
-80 -12 -211 -47 -648 -52 -656 -4 -7 -32 -8 -78 -4 l-72 7 -6 36 c-10 65 -63
222 -90 267 -69 118 -238 174 -531 177 l-145 2 7 115 c7 127 40 594 55 789 6
68 10 137 10 152 0 16 5 29 13 29 6 0 221 -12 477 -26z m2925 -261 c-3 -43
-11 -103 -16 -134 -9 -56 1 -113 33 -173 6 -10 6 -17 1 -15 -5 2 -50 22 -100
43 l-91 39 -52 109 c-29 60 -51 110 -49 112 2 1 29 0 59 -3 71 -9 129 11 177
61 20 21 39 38 41 38 1 0 0 -35 -3 -77z m408 26 c55 -29 66 -45 67 -99 1 -144
-186 -193 -267 -71 -33 48 -30 92 8 136 50 56 122 69 192 34z m-1108 -440
c286 -22 559 -41 606 -41 47 0 91 -3 97 -7 8 -5 12 -66 14 -191 l3 -185 45 -5
c48 -5 57 -19 59 -88 1 -26 -3 -33 -16 -31 -34 3 -40 -1 -66 -39 l-25 -39 -74
5 c-40 2 -80 8 -89 12 -8 5 -20 6 -26 2 -26 -16 -1116 49 -1137 69 -9 8 -18
141 -31 438 l-7 154 64 -6 c35 -4 297 -25 583 -48z m858 -80 c4 -40 6 -130 5
-199 l-3 -125 -52 -3 -53 -3 0 198 c0 165 3 202 16 221 16 23 16 23 47 4 30
-17 32 -23 40 -93z m408 -335 c9 -11 15 -53 17 -124 l4 -106 -183 -12 c-100
-7 -185 -9 -188 -6 -7 6 -19 226 -13 234 2 3 79 10 170 16 92 6 170 12 173 13
4 0 13 -6 20 -15z m-3895 -21 c-50 -172 -68 -404 -40 -527 4 -18 3 -27 -3 -23
-5 3 -18 41 -28 83 -21 91 -17 263 10 384 22 101 22 100 45 100 16 0 20 -5 16
-17z m93 -71 c-29 -115 -41 -230 -37 -366 2 -69 0 -126 -4 -126 -28 0 -31 303
-5 430 22 100 44 157 56 144 5 -5 1 -39 -10 -82z"/>
<path d="M3128 6149 c-11 -10 -18 -38 -23 -91 -4 -43 -5 -78 -3 -79 16 -5 487
-40 648 -49 113 -6 246 -18 295 -25 50 -8 106 -15 126 -15 l36 0 12 81 c17
109 14 111 -126 120 -259 18 -450 35 -638 54 -22 2 -101 7 -175 11 -106 5
-139 3 -152 -7z"/>
<path d="M5856 6168 c-2 -7 -17 -58 -33 -113 l-30 -100 -49 1 c-27 0 -74 7
-104 16 -30 8 -59 14 -65 11 -9 -3 -53 -152 -58 -198 -2 -17 6 -21 53 -27 30
-4 135 -27 233 -52 98 -24 184 -43 190 -40 7 2 24 39 38 82 75 220 103 289
122 305 30 26 13 38 -129 86 -126 43 -162 49 -168 29z"/>
</g>
</svg>
